<svg width="102" height="94" viewBox="0 0 102 94" fill="none" xmlns="http://www.w3.org/2000/svg">
<path d="M16.9248 31.5445H91.8925C95.8194 31.5445 99.0323 34.7451 99.0323 38.6569V84.8876C99.0323 88.7994 95.8194 92 91.8925 92H13.3549C9.42799 92 6.21509 88.7994 6.21509 84.8876V63.5504" stroke="#FABA05" stroke-width="4" stroke-miterlimit="10" stroke-linecap="round" stroke-linejoin="round"/>
<path d="M52.6237 45.7693H99.0323" stroke="#FABA05" stroke-width="4" stroke-miterlimit="10" stroke-linecap="round" stroke-linejoin="round"/>
<path d="M63.3334 77.7751C67.2766 77.7751 70.4732 74.5908 70.4732 70.6627C70.4732 66.7346 67.2766 63.5503 63.3334 63.5503C59.3902 63.5503 56.1936 66.7346 56.1936 70.6627C56.1936 74.5908 59.3902 77.7751 63.3334 77.7751Z" stroke="#FABA05" stroke-width="4" stroke-miterlimit="10" stroke-linecap="round" stroke-linejoin="round"/>
<path d="M77.6129 77.7751C81.5561 77.7751 84.7527 74.5908 84.7527 70.6627C84.7527 66.7346 81.5561 63.5503 77.6129 63.5503C73.6697 63.5503 70.4731 66.7346 70.4731 70.6627C70.4731 74.5908 73.6697 77.7751 77.6129 77.7751Z" stroke="#FABA05" stroke-width="4" stroke-miterlimit="10" stroke-linecap="round" stroke-linejoin="round"/>
<path d="M2.6452 10.2072L19.0667 3.09479C24.0646 0.961062 30.1334 2.02792 34.4172 5.58413L63.3334 31.5444" stroke="#A45319" stroke-width="4" stroke-miterlimit="10" stroke-linecap="round" stroke-linejoin="round"/>
<path d="M27.6345 24.4321L34.7742 31.5445" stroke="#A45319" stroke-width="4" stroke-miterlimit="10" stroke-linecap="round" stroke-linejoin="round"/>
<path d="M16.9248 31.5445H40.4861C47.2689 31.5445 52.6238 36.8788 52.6238 43.6356C52.6238 46.8362 50.1248 49.3255 46.9119 49.3255H20.4947C16.9248 55.7267 10.499 59.9942 2.64526 59.9942" stroke="#A45319" stroke-width="4" stroke-miterlimit="10" stroke-linecap="round" stroke-linejoin="round"/>
</svg>
