<svg width="39" height="23" viewBox="0 0 39 23" fill="none" xmlns="http://www.w3.org/2000/svg">
<path d="M38.4347 11.5205C33.89 6.16072 27.6096 0 19.2625 0C15.8916 0 12.8015 0.975447 9.54096 3.05982C6.79204 4.82589 3.97289 7.31071 0.100326 11.3973L0 11.5L0.672181 12.2085C6.20012 17.9996 10.9756 23 19.2625 23C22.9244 23 26.4759 21.7781 30.1177 19.2625C33.2178 17.1165 35.8563 14.3955 37.9732 12.1982L38.525 11.6335L38.4347 11.5205ZM19.2625 1.64286C22.5833 1.64286 25.7736 2.6183 29.0141 4.78482C31.4119 6.38661 33.7696 8.55313 36.4081 11.5719C32.5657 15.5455 26.7969 21.3571 19.2625 21.3571C15.8314 21.3571 12.8216 20.4946 9.81184 18.4616C7.05288 16.6031 4.56481 14.0156 2.16703 11.5C8.09627 5.37009 13.0423 1.64286 19.2625 1.64286Z" fill="white"/>
<path d="M19.2624 19.7147C23.6867 19.7147 27.2884 16.0285 27.2884 11.5004C27.2884 6.97229 23.6867 3.28613 19.2624 3.28613C14.838 3.28613 11.2363 6.97229 11.2363 11.5004C11.2363 16.0285 14.838 19.7147 19.2624 19.7147ZM19.2624 4.95979C22.7938 4.95979 25.6832 7.8964 25.6832 11.5004C25.6832 15.1044 22.7938 18.041 19.2624 18.041C15.7309 18.041 12.8516 15.1044 12.8516 11.5004C12.8516 7.8964 15.7309 4.95979 19.2624 4.95979Z" fill="white"/>
<path d="M22.473 11.4999C22.473 13.2967 21.0284 14.7856 19.2827 14.7856C17.537 14.7856 16.0522 13.2249 16.0522 11.428C16.0522 9.63111 17.6373 8.21415 19.2626 8.21415V6.57129C16.604 6.57129 14.457 8.78915 14.457 11.5204C14.457 14.2516 16.614 16.4592 19.2626 16.4592C21.9112 16.4592 24.0782 14.2414 24.0782 11.5204V11.4999H22.473Z" fill="white"/>
</svg>
