<svg width="38" height="38" viewBox="0 0 38 38" fill="none" xmlns="http://www.w3.org/2000/svg">
<path d="M20.8229 18.1652C21.1533 18.3123 21.5045 18.3871 21.8667 18.3871C22.5525 18.3871 23.1979 18.1199 23.6839 17.6345L24.5157 16.8028C24.911 16.4074 25.1286 15.8822 25.1286 15.3226C25.1286 14.763 24.911 14.2378 24.5157 13.843L23.5436 12.871C22.7523 12.0809 21.3758 12.0809 20.5845 12.871L20.1928 13.2626C20.05 13.4054 19.86 13.4839 19.6578 13.4839H19.5671C19.3648 13.4839 19.1748 13.4054 19.032 13.262L18.6091 12.8397C18.4657 12.6957 18.3866 12.5057 18.3866 12.3034C18.3866 12.0724 18.4902 11.8566 18.671 11.7126L19.0228 11.4313C19.3973 11.1309 19.6124 10.6835 19.6124 10.2036C19.6124 9.78992 19.4451 9.38479 19.1521 9.09243L18.0275 7.96775C17.2362 7.17772 15.8596 7.17711 15.0684 7.96775L14.2373 8.79946C13.7512 9.28427 13.4834 9.93027 13.4834 10.6308C13.4834 10.9802 13.5533 11.3209 13.6912 11.6433C14.8361 14.3144 16.9291 16.4356 19.5842 17.6155L20.8229 18.1652ZM14.8183 11.1604C14.746 10.9918 14.7092 10.8135 14.7092 10.6167C14.7092 10.2576 14.8496 9.92046 15.1033 9.66672L15.935 8.83501C16.0993 8.67075 16.3162 8.58066 16.5479 8.58066C16.7796 8.58066 16.9966 8.67075 17.1608 8.8344L18.2855 9.95908C18.3492 10.0234 18.3866 10.1129 18.3866 10.2036C18.3866 10.309 18.3394 10.4077 18.2567 10.4739L17.9055 10.7552C17.4317 11.1334 17.1608 11.6973 17.1608 12.3034C17.1608 12.833 17.3668 13.3307 17.7412 13.7058L18.1641 14.128C18.5392 14.5031 19.0375 14.7097 19.5671 14.7097H19.6578C20.1873 14.7097 20.6856 14.5031 21.0595 14.1293L21.4511 13.7382C21.779 13.4103 22.349 13.4103 22.6769 13.7382L23.649 14.7097C23.8133 14.8733 23.9028 15.0909 23.9028 15.3226C23.9028 15.5543 23.8133 15.7719 23.649 15.9355L22.8179 16.7672C22.4287 17.1558 21.8219 17.2686 21.3212 17.0449L20.0825 16.4945C17.71 15.4409 15.8406 13.5464 14.8183 11.1604Z" fill="#A45319"/>
<path d="M28.1937 12.8713C28.1937 7.80196 24.0695 3.67773 19.0002 3.67773C13.9309 3.67773 9.80664 7.80196 9.80664 12.8713C9.80664 17.9406 13.9309 22.0648 19.0002 22.0648C24.0695 22.0648 28.1937 17.9406 28.1937 12.8713ZM11.0324 12.8713C11.0324 8.47799 14.6069 4.90354 19.0002 4.90354C23.3935 4.90354 26.9679 8.47799 26.9679 12.8713C26.9679 17.2646 23.3935 20.839 19.0002 20.839C14.6069 20.839 11.0324 17.2646 11.0324 12.8713Z" fill="#A45319"/>
<path d="M34.9355 23.2903H27.1878L29.0915 20.8853C30.8842 18.6218 31.871 15.7847 31.871 12.871C31.871 5.77355 26.0968 0 19 0C11.9032 0 6.12903 5.77355 6.12903 12.871V12.8967C6.12903 15.7847 7.11581 18.6218 8.90855 20.8859L10.8122 23.2903H3.06452C1.37474 23.2903 0 24.6651 0 26.3548V34.9355C0 36.6253 1.37474 38 3.06452 38H34.9355C36.6253 38 38 36.6253 38 34.9355V26.3548C38 24.6651 36.6253 23.2903 34.9355 23.2903ZM36.7742 26.3548V28.1935H31.871V24.5161H34.9355C35.9492 24.5161 36.7742 25.3411 36.7742 26.3548ZM33.0968 36.7742H30.6452V31.871H20.3747C20.4066 31.836 20.4446 31.8085 20.474 31.7705L22.3354 29.4194H28.1935V24.5161H30.6452V29.4194H36.7742V31.871H33.0968V36.7742ZM4.90323 24.5161H7.35484V29.4194H15.664L17.5254 31.7711C17.5548 31.8085 17.5928 31.836 17.6246 31.871H11.0323V36.7742H8.58065V31.871H1.22581V29.4194H4.90323V24.5161ZM12.2581 33.0968H16.5484V36.7742H12.2581V33.0968ZM17.7742 32.0211C18.1131 32.3147 18.5415 32.4839 19 32.4839C19.4585 32.4839 19.8869 32.3147 20.2258 32.0211V36.7742H17.7742V32.0211ZM29.4194 36.7742H21.4516V33.0968H29.4194V36.7742ZM26.9677 24.5161V28.1935H23.3063L26.2176 24.5161H26.9677ZM7.35484 12.8967V12.871C7.35484 6.44958 12.5786 1.22581 19 1.22581C25.4214 1.22581 30.6452 6.44958 30.6452 12.8967C30.6452 15.5101 29.7522 18.077 28.1298 20.1247L19.5124 31.0098C19.2623 31.3261 18.7365 31.3255 18.4864 31.0098L9.86897 20.1247C8.24784 18.0764 7.35484 15.5095 7.35484 12.8967ZM14.6937 28.1935H8.58065V24.5161H11.7825L14.6937 28.1935ZM3.06452 24.5161H3.67742V28.1935H1.22581V26.3548C1.22581 25.3411 2.05077 24.5161 3.06452 24.5161ZM1.22581 34.9355V33.0968H7.35484V36.7742H3.06452C2.05077 36.7742 1.22581 35.9492 1.22581 34.9355ZM34.9355 36.7742H34.3226V33.0968H36.7742V34.9355C36.7742 35.9492 35.9492 36.7742 34.9355 36.7742Z" fill="#A45319"/>
<path d="M36.7746 12.2578H35.5488V13.4836H36.7746V12.2578Z" fill="#A45319"/>
<path d="M34.3225 12.2578H33.0967V13.4836H34.3225V12.2578Z" fill="#A45319"/>
<path d="M4.90354 12.2578H3.67773V13.4836H4.90354V12.2578Z" fill="#A45319"/>
<path d="M2.45139 12.2578H1.22559V13.4836H2.45139V12.2578Z" fill="#A45319"/>
</svg>
