<svg width="167" height="90" viewBox="0 0 167 90" fill="none" xmlns="http://www.w3.org/2000/svg">
<path d="M116.533 55.1335H114.708L107.053 86.4944H98.4558L107.365 49.9913C107.607 49.0008 108.195 48.1653 108.982 47.6055C109.233 47.6571 109.501 47.683 109.769 47.683H114.829L115.314 49.8105L116.533 55.1335Z" fill="#FABA05"/>
<path d="M116.533 55.1333H114.708L107.053 86.4942H101.12L109.501 52.1187C109.743 51.1281 110.332 50.2927 111.119 49.7328C111.37 49.7845 111.638 49.8103 111.906 49.8103H115.314L116.533 55.1333Z" fill="#FABA05"/>
<path d="M160.222 86.4857H151.624L144.307 57.1231L143.814 55.1249H126.238L124.526 47.6744H149.644C150.292 48.1653 150.803 48.8544 151.062 49.664C151.088 49.7588 151.114 49.8621 151.149 49.9655L153.311 58.6563L160.222 86.4857Z" fill="#FABA05"/>
<path d="M160.222 86.4856H153.138L146.184 58.5873C145.968 57.7259 145.198 57.1316 144.307 57.1316L143.814 55.1334H127.778L127.7 54.7888C127.103 52.1704 129.101 49.6725 131.8 49.6725H150.751C150.889 49.7759 151.002 49.8707 151.14 49.974L153.303 58.6648L160.222 86.4856Z" fill="#FABA05"/>
<path d="M114.829 47.6831H109.769C109.501 47.6831 109.233 47.6572 108.982 47.6055C107.105 47.2352 105.687 45.59 105.687 43.6176V43.609C105.687 42.8338 105.912 42.1017 106.292 41.4901C107.002 40.3187 108.299 39.5435 109.769 39.5435H112.97L114.829 47.6831Z" fill="white"/>
<path d="M113.177 47.6831H109.778C109.51 47.6831 109.242 47.6572 108.991 47.6055C107.114 47.2352 105.695 45.5901 105.695 43.6176V43.609C105.695 42.8338 105.92 42.1017 106.301 41.4901C106.924 41.1112 107.65 40.8872 108.429 40.8872C110.297 40.8872 111.923 42.1792 112.338 43.9966L113.177 47.6831Z" fill="white"/>
<path d="M153.873 43.609C153.873 45.8657 152.048 47.6831 149.791 47.6831H124.526L122.657 39.5435H149.799C151.045 39.5435 152.161 40.0948 152.905 40.9733C153.51 41.671 153.873 42.6012 153.873 43.609Z" fill="white"/>
<path d="M153.873 43.609C153.873 45.8656 152.048 47.683 149.791 47.683H126.757L126.212 45.2972C125.702 43.0577 127.406 40.9216 129.715 40.9216H152.351C152.541 40.9216 152.723 40.9389 152.905 40.9647C153.51 41.671 153.873 42.6012 153.873 43.609Z" fill="white"/>
<path d="M166.381 5.27151L153.597 58.0794C153.545 58.312 153.432 58.5101 153.303 58.6651L151.14 49.9743C150.907 49.0355 150.37 48.2345 149.635 47.6832H149.791C152.048 47.6832 153.874 45.8572 153.874 43.6178V43.6091C153.874 41.3611 152.04 39.5437 149.791 39.5437H149.35L158.155 3.29046C158.389 2.35161 158.925 1.54197 159.651 0.964879C160.378 0.396403 161.295 0.0604858 162.272 0.0604858C165.005 0.0690991 167.021 2.61863 166.381 5.27151Z" fill="#85AFDC"/>
<path d="M63.6415 17.5882H25.0213V6.96808H52.9766L63.6415 17.5882Z" fill="white"/>
<path d="M58.9534 17.5882H25.0213V9.31085H47.4323C49.4736 9.31085 51.437 10.1205 52.8815 11.5589L58.9534 17.5882Z" fill="white"/>
<path d="M142.629 6.96808V17.5882H104.995L115.668 6.96808H142.629Z" fill="white"/>
<path d="M142.629 8.87164V17.5883H108.827L114.674 11.7657C116.533 9.91385 119.05 8.87164 121.68 8.87164H142.629Z" fill="white"/>
<path d="M63.6415 17.5883L76.9791 30.8785H55.5888L58.6334 17.5883H63.6415Z" fill="#FABA05"/>
<path d="M110.989 30.8785H91.6487L104.995 17.5883H107.944L110.989 30.8785Z" fill="#FABA05"/>
<path d="M133.962 88.7424H124.214L116.533 55.1335L114.829 47.683L112.97 39.5349L110.989 30.8785L107.944 17.5883H117.606L118.307 20.6201L122.649 39.5349L124.526 47.683L126.238 55.1335L133.962 88.7424Z" fill="#484C4C"/>
<path d="M133.962 88.7424H126.999L114.466 33.9103L112.953 27.2953C112.174 23.8759 114.778 20.6201 118.298 20.6201L133.962 88.7424Z" fill="#5F6161"/>
<path d="M50.0444 55.1335H51.8695L59.5243 86.4944H68.122L59.2129 49.9913C58.9707 49.0008 58.3826 48.1653 57.5955 47.6055C57.3446 47.6571 57.0765 47.683 56.8084 47.683H51.7484L51.264 49.8105L50.0444 55.1335Z" fill="#FABA05"/>
<path d="M50.0444 55.1333H51.8695L59.5243 86.4942H65.4579L57.0765 52.1187C56.8343 51.1281 56.2462 50.2927 55.459 49.7328C55.2082 49.7845 54.9401 49.8103 54.6719 49.8103H51.264L50.0444 55.1333Z" fill="#FABA05"/>
<path d="M6.35567 86.4857H14.9533L22.2708 57.1231L22.7638 55.1249H40.3483L42.0609 47.6744H16.9427C16.294 48.1653 15.7837 48.8544 15.5242 49.664C15.4982 49.7588 15.4723 49.8621 15.4377 49.9655L13.2753 58.6563L6.35567 86.4857Z" fill="#FABA05"/>
<path d="M6.35567 86.4856H13.4396L20.3939 58.5873C20.6101 57.7259 21.3799 57.1316 22.2708 57.1316L22.7638 55.1334H38.8001L38.8779 54.7888C39.4747 52.1704 37.4767 49.6725 34.778 49.6725H15.8356C15.6972 49.7759 15.5847 49.8707 15.4463 49.974L13.2839 58.6648L6.35567 86.4856Z" fill="#FABA05"/>
<path d="M51.7484 47.6831H56.8084C57.0765 47.6831 57.3447 47.6572 57.5955 47.6055C59.4724 47.2352 60.891 45.59 60.891 43.6176V43.609C60.891 42.8338 60.6661 42.1017 60.2855 41.4901C59.5762 40.3187 58.2788 39.5435 56.8084 39.5435H53.6081L51.7484 47.6831Z" fill="white"/>
<path d="M53.4091 47.6831H56.8084C57.0765 47.6831 57.3446 47.6572 57.5955 47.6055C59.4724 47.2352 60.8909 45.5901 60.8909 43.6176V43.609C60.8909 42.8338 60.6661 42.1017 60.2855 41.4901C59.6627 41.1112 58.9362 40.8872 58.1577 40.8872C56.2894 40.8872 54.6633 42.1792 54.2481 43.9966L53.4091 47.6831Z" fill="white"/>
<path d="M12.7044 43.609C12.7044 45.8657 14.5295 47.6831 16.787 47.6831H42.0523L43.9206 39.5435H16.787C15.5415 39.5435 14.4257 40.0948 13.6818 40.9733C13.0763 41.671 12.7044 42.6012 12.7044 43.609Z" fill="white"/>
<path d="M12.7044 43.609C12.7044 45.8656 14.5295 47.683 16.787 47.683H39.8207L40.3656 45.2972C40.8759 43.0577 39.172 40.9216 36.8625 40.9216H14.2354C14.0451 40.9216 13.8634 40.9389 13.6818 40.9647C13.0763 41.671 12.7044 42.6012 12.7044 43.609Z" fill="white"/>
<path d="M0.197892 5.27151L12.9819 58.0794C13.0338 58.312 13.1462 58.5101 13.276 58.6651L15.4384 49.9743C15.6719 49.0355 16.2082 48.2345 16.9434 47.6832H16.7877C14.5302 47.6832 12.7051 45.8572 12.7051 43.6178V43.6091C12.7051 41.3611 14.5388 39.5437 16.7877 39.5437H17.2288L8.4236 3.29046C8.19006 2.35161 7.65379 1.54197 6.92723 0.964879C6.20067 0.396403 5.28382 0.0604858 4.30642 0.0604858C1.58182 0.0690991 -0.442173 2.61863 0.197892 5.27151Z" fill="#85AFDC"/>
<path d="M32.6243 88.7424H42.3636L50.0444 55.1335L51.7484 47.683L53.608 39.5349L55.5974 30.8785L58.6334 17.5883H48.9719L48.2799 20.6201L43.9292 39.5349L42.0609 47.683L40.3483 55.1335L32.6243 88.7424Z" fill="#484C4C"/>
<path d="M32.6243 88.7424H39.5871L52.1117 33.9103L53.6253 27.2953C54.4038 23.8759 51.8003 20.6201 48.2799 20.6201L32.6243 88.7424Z" fill="#5F6161"/>
<path d="M115.668 6.96808L104.995 17.5882L91.6486 30.8785L84.3138 38.1825L76.979 30.8785L63.6415 17.5882L52.9766 6.96808H115.668Z" fill="#FDF081"/>
<path d="M102.997 6.96808L92.332 17.5882L84.2966 25.5986L76.2612 17.5882L65.5876 6.96808H102.997Z" fill="#FABA05"/>
<path d="M106.976 87.752H98.378C97.9715 87.752 97.5823 87.5625 97.3314 87.2438C97.0806 86.9251 96.9854 86.5117 97.0892 86.1154L105.998 49.6124C106.31 48.3377 107.071 47.2266 108.126 46.4686C108.42 46.2533 108.792 46.1757 109.155 46.2446C109.337 46.2791 109.51 46.2963 109.692 46.2963H114.752C115.374 46.2963 115.911 46.727 116.049 47.3213L117.753 54.7718C117.839 55.168 117.744 55.5728 117.493 55.8915C117.243 56.2102 116.862 56.3911 116.456 56.3911H115.677L108.273 86.7356C108.117 87.3299 107.59 87.752 106.976 87.752ZM100.073 85.1077H105.938L113.342 54.7632C113.489 54.1689 114.016 53.7554 114.63 53.7554H114.786L113.688 48.9492H109.692C109.571 48.9492 109.441 48.9406 109.311 48.932C108.956 49.2937 108.697 49.7416 108.576 50.2412L100.073 85.1077Z" fill="#A45319"/>
<path d="M160.144 87.7519H151.547C150.933 87.7519 150.405 87.3385 150.258 86.7442L142.94 57.3815L142.698 56.391H126.152C125.529 56.391 124.993 55.969 124.854 55.366L123.142 47.9156C123.055 47.5194 123.142 47.1145 123.401 46.7958C123.652 46.4771 124.032 46.2963 124.439 46.2963H149.557C149.851 46.2963 150.128 46.391 150.362 46.5633C151.244 47.2351 151.893 48.1481 152.239 49.1989C152.247 49.2162 152.247 49.2248 152.256 49.242C152.282 49.3454 152.316 49.4487 152.342 49.5607C152.342 49.5693 152.351 49.5865 152.351 49.5951L154.513 58.2859L161.433 86.1068C161.528 86.503 161.442 86.9164 161.191 87.2437C160.931 87.5624 160.551 87.7519 160.144 87.7519ZM152.585 85.1076H158.44L151.927 58.9233L149.765 50.2411C149.739 50.155 149.722 50.0689 149.696 49.9914C149.566 49.5951 149.341 49.2334 149.047 48.9405H126.1L127.207 53.7467H143.736C144.35 53.7467 144.878 54.1602 145.025 54.7545L145.518 56.7528L152.585 85.1076Z" fill="#A45319"/>
<path d="M114.752 48.9405H109.692C109.346 48.9405 109 48.906 108.654 48.8371C106.119 48.3376 104.277 46.1153 104.277 43.5486C104.277 42.5494 104.554 41.5761 105.081 40.7234C106.041 39.1386 107.806 38.1481 109.692 38.1481H112.892C113.515 38.1481 114.051 38.5787 114.189 39.173L116.049 47.3126C116.135 47.7088 116.04 48.1136 115.789 48.4323C115.53 48.7596 115.149 48.9405 114.752 48.9405ZM109.692 40.801C108.723 40.801 107.849 41.2919 107.348 42.1102C107.071 42.5494 106.932 43.0404 106.932 43.5486C106.932 44.8664 107.867 45.9948 109.155 46.2531C109.328 46.2876 109.51 46.3048 109.683 46.3048H113.082L111.828 40.8096H109.692V40.801Z" fill="#A45319"/>
<path d="M149.713 48.9405H124.448C123.825 48.9405 123.289 48.5184 123.15 47.9155L121.282 39.776C121.195 39.3798 121.282 38.9749 121.541 38.6562C121.801 38.3376 122.173 38.1567 122.579 38.1567H149.722C151.313 38.1567 152.809 38.8457 153.839 40.0516C154.669 41.0163 155.136 42.2566 155.136 43.5486V43.5572C155.119 46.5288 152.697 48.9405 149.713 48.9405ZM125.503 46.2962H149.713C151.235 46.2962 152.472 45.0645 152.472 43.5486V43.54C152.472 42.8854 152.239 42.2566 151.815 41.7656C151.287 41.1455 150.526 40.801 149.713 40.801H124.24L125.503 46.2962Z" fill="#A45319"/>
<path d="M166.303 5.21103L153.519 58.0189C153.467 58.2515 153.354 58.4496 153.225 58.6047L151.062 49.9139C150.829 48.975 150.292 48.174 149.557 47.6227H149.713C151.971 47.6227 153.796 45.7967 153.796 43.5573V43.5487C153.796 41.3006 151.962 39.4832 149.713 39.4832H149.272L158.077 3.22997C158.311 2.29113 158.847 1.48148 159.573 0.904393C160.3 0.335917 161.217 0 162.194 0C164.919 0.00861327 166.943 2.55814 166.303 5.21103Z" fill="#A45319"/>
<path d="M63.555 18.8543H24.9349C24.1996 18.8543 23.6028 18.26 23.6028 17.5279V6.90774C23.6028 6.17562 24.1996 5.5813 24.9349 5.5813H52.8901C53.2448 5.5813 53.5821 5.71911 53.8329 5.9689L64.4978 16.589C64.8784 16.968 64.9908 17.5365 64.7832 18.0275C64.5756 18.5356 64.0913 18.8543 63.555 18.8543ZM26.2669 16.2101H60.3547L52.3452 8.23418H26.2669V16.2101Z" fill="#A45319"/>
<path d="M142.543 18.8545H104.917C104.381 18.8545 103.896 18.5358 103.689 18.0362C103.481 17.5452 103.594 16.9768 103.974 16.5978L114.648 5.97762C114.899 5.72784 115.236 5.59003 115.591 5.59003H142.551C143.286 5.59003 143.883 6.18434 143.883 6.91647V17.528C143.866 18.2601 143.278 18.8545 142.543 18.8545ZM108.117 16.2102H141.211V8.23429H116.127L108.117 16.2102Z" fill="#A45319"/>
<path d="M76.9012 32.136H55.5023C55.0957 32.136 54.7152 31.9551 54.4643 31.6364C54.2135 31.3177 54.1183 30.9129 54.2048 30.5167L57.2495 17.2351C57.3879 16.6321 57.9241 16.2101 58.5469 16.2101H63.555C63.9096 16.2101 64.2469 16.3479 64.4978 16.5977L77.8354 29.8793C78.2159 30.2583 78.3284 30.8268 78.1208 31.3177C77.9218 31.8173 77.4375 32.136 76.9012 32.136ZM57.1716 29.4917H73.6922L63.0101 18.8544H59.6108L57.1716 29.4917Z" fill="#A45319"/>
<path d="M110.903 32.136H91.5622C91.0259 32.136 90.5416 31.8173 90.334 31.3177C90.1264 30.8268 90.2388 30.2583 90.6194 29.8793L103.966 16.5977C104.216 16.3479 104.554 16.2101 104.908 16.2101H107.858C108.481 16.2101 109.017 16.6407 109.155 17.2351L112.2 30.5167C112.286 30.9129 112.191 31.3177 111.94 31.6364C111.69 31.9551 111.309 32.136 110.903 32.136ZM94.7712 29.4917H109.242L106.803 18.8544H105.462L94.7712 29.4917Z" fill="#A45319"/>
<path d="M133.876 89.9999H124.136C123.514 89.9999 122.977 89.5693 122.839 88.9749L115.158 55.366L113.454 47.9155L111.594 39.776L106.569 17.8294C106.483 17.4332 106.578 17.0283 106.829 16.7097C107.079 16.391 107.46 16.2101 107.867 16.2101H117.528C118.151 16.2101 118.687 16.6321 118.825 17.2351L135.182 88.3806C135.268 88.7768 135.182 89.1816 134.922 89.5003C134.663 89.819 134.282 89.9999 133.876 89.9999ZM125.192 87.3556H132.206L121.273 39.7674L116.464 18.8544H109.527L114.181 39.1817L116.04 47.3212L117.744 54.7717L125.192 87.3556Z" fill="#A45319"/>
<path d="M68.0355 87.7518H59.4378C58.8237 87.7518 58.2961 87.3384 58.149 86.7441L50.745 56.3996H49.9666C49.5601 56.3996 49.1795 56.2187 48.9286 55.9C48.6778 55.5813 48.5827 55.1765 48.6692 54.7803L50.3731 47.3298C50.5115 46.7269 51.0478 46.3048 51.6705 46.3048H56.7305C56.9035 46.3048 57.0851 46.2876 57.2668 46.2531C57.6214 46.1842 57.9934 46.2617 58.2961 46.4771C59.36 47.235 60.1125 48.3548 60.4239 49.6209L69.3329 86.1239C69.428 86.5201 69.3415 86.9336 69.0907 87.2523C68.8312 87.5623 68.442 87.7518 68.0355 87.7518ZM60.4844 85.1076H66.3488L57.8377 50.2411C57.7166 49.7415 57.4571 49.2936 57.1025 48.9319C56.9727 48.9405 56.8516 48.9491 56.7219 48.9491H52.7258L51.6273 53.7553H51.783C52.3971 53.7553 52.9247 54.1687 53.0718 54.763L60.4844 85.1076Z" fill="#A45319"/>
<path d="M14.8668 87.7519H6.26916C5.86264 87.7519 5.47341 87.5624 5.22257 87.2437C4.97173 86.925 4.88524 86.503 4.98038 86.1068L11.9 58.2859L14.0624 49.5951C14.0624 49.5865 14.0624 49.5779 14.071 49.5693C14.1056 49.4487 14.1316 49.3454 14.1575 49.242C14.1575 49.2248 14.1662 49.2162 14.1748 49.1989C14.5208 48.1481 15.1695 47.2437 16.0518 46.5633C16.2853 46.391 16.5621 46.2963 16.8562 46.2963H41.9744C42.3809 46.2963 42.7615 46.4771 43.0124 46.7958C43.2632 47.1145 43.3583 47.5194 43.2719 47.9156L41.5592 55.366C41.4209 55.969 40.8846 56.391 40.2618 56.391H23.7153L23.4731 57.3815L16.1556 86.7442C16.0085 87.3385 15.4809 87.7519 14.8668 87.7519ZM7.97312 85.1076H13.8289L20.8955 56.7528L21.3885 54.7631C21.5356 54.1688 22.0632 53.7554 22.6773 53.7554H39.2066L40.3137 48.9492H17.3579C17.0638 49.2506 16.8475 49.6038 16.7091 50C16.6832 50.0775 16.6659 50.1636 16.6399 50.2498L14.4776 58.9233L7.97312 85.1076Z" fill="#A45319"/>
<path d="M56.7305 48.9405H51.6706C51.264 48.9405 50.8835 48.7596 50.6326 48.4409C50.3818 48.1308 50.2866 47.7174 50.3731 47.3212L52.2328 39.1817C52.3712 38.5787 52.9075 38.1567 53.5302 38.1567H56.7305C58.6075 38.1567 60.3806 39.1472 61.3494 40.7407C61.8684 41.5761 62.1451 42.5494 62.1451 43.5486C62.1451 46.1239 60.3028 48.3462 57.7771 48.8457C57.4225 48.906 57.0765 48.9405 56.7305 48.9405ZM53.3313 46.2962H56.7305C56.9035 46.2962 57.0852 46.279 57.2668 46.2445C58.5556 45.9948 59.4897 44.8578 59.4897 43.5486C59.4897 43.0404 59.3513 42.5494 59.0832 42.1188C58.5815 41.2833 57.6993 40.801 56.7305 40.801H54.5855L53.3313 46.2962Z" fill="#A45319"/>
<path d="M41.9744 48.9405H16.7091C13.725 48.9405 11.2945 46.5202 11.2945 43.5486V43.54C11.2945 42.248 11.7616 41.0077 12.6006 40.0344C13.6212 38.8371 15.1176 38.1481 16.7091 38.1481H43.8514C44.2579 38.1481 44.6385 38.3289 44.8893 38.6476C45.1401 38.9663 45.2353 39.3712 45.1488 39.7674L43.2805 47.9069C43.1334 48.5184 42.5972 48.9405 41.9744 48.9405ZM16.7091 40.801C15.9047 40.801 15.1349 41.1541 14.6159 41.7656C14.1835 42.2652 13.9499 42.894 13.9499 43.5486V43.5572C13.9499 45.0731 15.1868 46.3048 16.7091 46.3048H40.9192L42.182 40.8096H16.7091V40.801Z" fill="#A45319"/>
<path d="M0.11935 5.21103L12.9034 58.0189C12.9553 58.2515 13.0677 58.4496 13.1974 58.6047L15.3598 49.9139C15.5934 48.975 16.1296 48.174 16.8648 47.6227H16.7092C14.4516 47.6227 12.6266 45.7967 12.6266 43.5573V43.5487C12.6266 41.3006 14.4603 39.4832 16.7092 39.4832H17.1503L8.34505 3.22997C8.11152 2.29113 7.57524 1.48148 6.84868 0.904393C6.12212 0.335917 5.20527 0 4.22788 0C1.49462 0.00861327 -0.520716 2.55814 0.11935 5.21103Z" fill="#A45319"/>
<path d="M42.2858 89.9999H32.5378C32.1313 89.9999 31.7507 89.819 31.4998 89.5003C31.249 89.1816 31.1539 88.7768 31.2404 88.3806L42.5453 39.1817L47.588 17.2351C47.7264 16.6321 48.2626 16.2101 48.8854 16.2101H58.5469C58.9535 16.2101 59.334 16.391 59.5849 16.7097C59.8357 17.0283 59.9309 17.4332 59.8444 17.8294L54.819 39.776L52.9593 47.9155L51.2554 55.366L43.5746 88.9749C43.4362 89.5779 42.8999 89.9999 42.2858 89.9999ZM34.2071 87.3556H41.2219L48.6692 54.7717L50.3731 47.3212L52.2328 39.1817L56.8862 18.8544H49.9493L34.2071 87.3556Z" fill="#A45319"/>
<path d="M84.236 39.4402C83.8987 39.4402 83.5527 39.311 83.2932 39.0526L51.9473 7.8467C51.5668 7.46771 51.4543 6.89924 51.6619 6.40829C51.8695 5.91733 52.3539 5.59003 52.8901 5.59003H115.582C116.118 5.59003 116.603 5.90872 116.81 6.40829C117.018 6.89924 116.905 7.46771 116.525 7.8467L105.86 18.4669L92.505 31.7485L85.1702 39.0526C84.9107 39.311 84.5734 39.4402 84.236 39.4402ZM56.0991 8.23429L84.236 36.2532L90.628 29.888L103.974 16.6064L112.373 8.24291H56.0991V8.23429Z" fill="#A45319"/>
</svg>
